<?xml version="1.0" standalone="no"?>
<!DOCTYPE svg PUBLIC "-//W3C//DTD SVG 20010904//EN"
 "http://www.w3.org/TR/2001/REC-SVG-20010904/DTD/svg10.dtd">
<svg version="1.0" xmlns="http://www.w3.org/2000/svg"
 width="375.000000pt" height="83.000000pt" viewBox="0 0 375.000000 83.000000"
 preserveAspectRatio="xMidYMid meet">
<metadata>
Created by potrace 1.16, written by Peter Selinger 2001-2019
</metadata>
<g transform="translate(0.000000,83.000000) scale(0.100000,-0.100000)"
fill="#000000" stroke="none">
<path d="M220 461 c-113 -195 -206 -358 -208 -362 -4 -10 236 -10 593 0 l230
6 -202 128 -203 129 -2 226 -3 226 -205 -353z"/>
<path d="M2580 485 l0 -305 55 0 55 0 0 305 0 305 -55 0 -55 0 0 -305z"/>
<path d="M1147 751 c-113 -46 -185 -143 -194 -263 -10 -124 62 -240 184 -295
76 -35 184 -30 261 12 l52 28 0 119 0 118 -55 0 -55 0 0 -84 0 -84 -31 -11
c-60 -21 -135 -6 -182 37 -62 56 -79 171 -35 236 68 99 185 123 271 55 l25
-19 27 46 c15 25 24 51 22 58 -3 8 -27 24 -53 36 -66 32 -172 37 -237 11z"/>
<path d="M2030 475 l0 -295 165 0 c184 0 214 7 257 58 55 65 61 146 15 206
l-25 32 24 27 c74 86 14 230 -106 256 -28 6 -114 11 -190 11 l-140 0 0 -295z
m327 167 c6 -4 16 -19 22 -34 8 -22 6 -31 -10 -52 -20 -25 -25 -26 -120 -26
l-99 0 0 60 0 60 98 0 c53 0 102 -4 109 -8z m-7 -235 c20 -10 25 -20 25 -52 0
-53 -25 -65 -137 -65 l-88 0 0 65 0 65 88 0 c50 0 98 -6 112 -13z"/>
<path d="M1632 609 c-81 -40 -122 -113 -122 -214 1 -133 124 -240 254 -221
217 33 257 356 54 440 -54 23 -134 20 -186 -5z m174 -123 c29 -29 34 -41 34
-81 0 -58 -27 -99 -75 -115 -77 -25 -145 30 -145 119 0 36 6 49 34 77 28 28
42 34 76 34 34 0 48 -6 76 -34z"/>
<path d="M2885 611 c-81 -36 -125 -113 -125 -216 1 -177 195 -282 342 -185 58
38 89 96 95 175 7 75 -8 124 -50 172 -62 70 -176 94 -262 54z m171 -125 c29
-29 34 -41 34 -81 0 -58 -27 -99 -75 -115 -77 -25 -145 30 -145 119 0 36 6 49
34 77 28 28 42 34 76 34 34 0 48 -6 76 -34z"/>
<path d="M3375 612 c-82 -40 -125 -112 -125 -212 0 -140 83 -224 221 -225 42
0 72 5 82 14 15 11 17 11 17 -2 0 -8 -14 -27 -31 -41 -24 -20 -41 -26 -80 -26
l-49 0 0 -55 0 -55 43 0 c96 0 173 45 212 123 24 50 25 56 25 269 0 120 -3
218 -7 218 -4 0 -19 -12 -34 -26 l-27 -26 -43 28 c-58 37 -146 43 -204 16z
m151 -108 c33 -22 54 -64 54 -110 0 -29 -8 -44 -39 -75 -42 -43 -73 -49 -120
-25 -15 8 -35 26 -45 40 -19 30 -21 102 -2 135 27 49 103 66 152 35z"/>
</g>
</svg>
